<?xml version="1.0" encoding="UTF-8"?>
<svg id="Layer_2" data-name="Layer 2" xmlns="http://www.w3.org/2000/svg" viewBox="0 0 480.93 107.28">
  <defs>
    <style>
      .cls-1 {
        fill: #ffffff;
      }
    </style>
  </defs>
  <g id="Layer_1-2" data-name="Layer 1">
    <g>
      <path class="cls-1" d="M124.37,1.3l-95.4.22.1,44.92,16.31-.55-.06-28.1,62.78-.14.05,20.23L28.14,62.47l.1,44.09,96.36-.22-.24-105.05ZM108.26,90.07l-63.75.15-.04-15.71,63.7-19.58.08,35.14Z"/>
      <polygon class="cls-1" points="169.87 90.9 152.85 90.93 152.68 16.76 153.42 16.75 206.68 107.12 232.95 107.06 232.7 .08 195.71 .17 196.02 16.48 216.43 16.43 216.6 90.79 215.86 90.79 162.61 .42 136.33 .48 136.58 107.28 170.23 107.21 169.87 90.9"/>
      <polygon class="cls-1" points="464.26 60.84 464.33 89.54 400.25 89.69 400.08 16.76 463.18 16.61 463.24 41.88 479.8 41.29 479.71 0 383.47 .22 383.72 106.3 480.93 106.07 480.83 60.36 464.26 60.84"/>
      <polygon class="cls-1" points="355.59 63.59 355.65 89.79 315.17 89.88 315.09 55.95 371.11 44.49 370.49 27.95 315.06 39.23 314.97 2.17 298.4 2.21 298.5 42.6 271.44 48.1 271.3 64.92 298.53 59.34 298.64 106.49 372.27 106.32 371.78 63.14 355.59 63.59"/>
      <polygon class="cls-1" points="16.65 48.2 16.26 2.34 0 2.37 .39 48.55 16.65 48.2"/>
      <polygon class="cls-1" points=".61 105.84 16.92 105.81 17.1 61.85 .79 62.34 .61 105.84"/>
      <polygon class="cls-1" points="246.52 107.2 263.03 106.71 262.79 .07 246.27 .11 246.52 107.2"/>
    </g>
  </g>
</svg>